<svg id="Layer_1" data-name="Layer 1" xmlns="http://www.w3.org/2000/svg" width="22.42" height="22.98" viewBox="0 0 22.42 22.98"><defs><style>.cls-1{fill:#988f87;}</style></defs><path class="cls-1" d="M50,38.51a4,4,0,0,0-3.87,3.34h0L46,43.12H41.27a.81.81,0,0,0-.64.7L38.8,60.62a.81.81,0,0,0,.73.87H60.4a.8.8,0,0,0,.81-.79h0v-.07l-1.67-16.8a.8.8,0,0,0-.8-.7H54.12L54,41.78v-.1A4.06,4.06,0,0,0,50,38.51Zm0,1.6a2.34,2.34,0,0,1,2.37,1.94l.1,1.07H47.58l.13-1a2.29,2.29,0,0,1,2.31-2Zm-7.85,4.61h3.37a.8.8,0,0,0,1.6.17h0l.27-.17h5.24l.21.17a.79.79,0,0,0,.84.74h0a.82.82,0,0,0,.74-.87H58l1.5,15.17h-19l1.7-15.17Z" transform="translate(-38.8 -38.51)"/></svg>