<svg id="Graphic_Elemnts" data-name="Graphic Elemnts" xmlns="http://www.w3.org/2000/svg" width="153.06" height="195.97" viewBox="0 0 153.06 195.97"><defs><style>.cls-1{fill:#9f968e;}</style></defs><path class="cls-1" d="M583.65,696.78a1.51,1.51,0,0,1-.69-.15.14.14,0,0,1,0-.09v-.3c0-.69,0-1.41,0-2.11,0-.3-.07-.6-.11-.9a9.37,9.37,0,0,1-.13-1.2c0-.29,0-.58,0-.87a9.7,9.7,0,0,0,0-1.52l-.06-.44c-.08-.59-.15-1.15-.18-1.74s-.13-1.44-.23-2.14a19.48,19.48,0,0,1-.24-2.3c0-.71,0-1.42,0-2.12,0-.9,0-1.82-.05-2.73s-.11-1.6-.18-2.37-.16-1.77-.2-2.66c-.12-2.42-.1-4.88-.09-7.26,0-.9,0-1.79,0-2.69a65.52,65.52,0,0,1,1-9.88c.59-3.75.83-7.6,1.07-11.32.18-2.9.37-5.89.72-8.83.16-1.35.35-2.73.53-4.07.27-2,.54-4,.74-6,.11-1.15.14-2.33.17-3.46,0-.53,0-1.06.05-1.58,0-.9.12-1.8.2-2.68.06-.7.13-1.42.17-2.14.18-3,.16-6.14.14-9.14v-.88c0-1.88-.14-3.79-.26-5.63-.1-1.43-.2-2.91-.24-4.37-.08-2.62-.07-5.29-.06-7.86,0-.76,0-1.51,0-2.26a64.34,64.34,0,0,1,.53-9.58,33.18,33.18,0,0,1,1.15-4.75c.19-.62.33-1.28.47-1.91a17.53,17.53,0,0,1,.64-2.44,21.15,21.15,0,0,1,4.48-6.47l.7-.77a11,11,0,0,1,2.87-2.5,25.27,25.27,0,0,1,4-1.84,29.49,29.49,0,0,1,4.41-1.16l1.92-.3c.91-.13,1.84-.26,2.74-.47a30.11,30.11,0,0,0,3.63-1.18l.76-.28a37.6,37.6,0,0,0,4.17-1.87l1-.52a29.5,29.5,0,0,1,3-1.45,17.87,17.87,0,0,0,3.71-2.11,5.68,5.68,0,0,0,2.38-3,9.08,9.08,0,0,0,.33-3.55,23.14,23.14,0,0,0-.76-3.86,17.35,17.35,0,0,0-1.25-3.07c-.18-.39-.38-.79-.55-1.18l.07,0,0-.06h.15c.25,0,.56,0,.63.17.18.4.37.8.56,1.19a17.63,17.63,0,0,1,1.22,2.95c.7,2.51,1.24,5.17.46,7.64a5.35,5.35,0,0,1-1.93,2.73,16.6,16.6,0,0,1-3.61,2.27c-1.33.55-2.62,1.2-3.87,1.83s-2.8,1.42-4.27,2-3,1.11-4.38,1.54a21.55,21.55,0,0,1-3.24.63l-1.26.19a28.07,28.07,0,0,0-8.66,2.78,11.55,11.55,0,0,0-3.44,2.78l-.78.87a32.77,32.77,0,0,0-2.15,2.52,15.34,15.34,0,0,0-2.17,3.68,17,17,0,0,0-.69,2.54,18.7,18.7,0,0,1-.47,1.93,37.42,37.42,0,0,0-1.58,9.41c-.12,2.58-.11,5.21-.1,7.75v2.16c0,2.75,0,6.36.35,10,.23,2.75.21,5.55.19,8.26,0,.64,0,1.29,0,1.94,0,1.52,0,3.15-.1,4.78,0,.75-.11,1.51-.18,2.25s-.16,1.81-.19,2.71c0,.53,0,1.06-.06,1.58,0,1.14-.06,2.32-.17,3.48s-.28,2.38-.44,3.54c-.07.46-.13.93-.19,1.39-.47,3.64-.89,6.91-1.18,10.22-.15,1.71-.23,3.45-.32,5.14s-.16,3.26-.29,4.88c-.16,1.9-.45,3.81-.74,5.65-.21,1.35-.42,2.74-.58,4.11a70.18,70.18,0,0,0-.3,8.31v1.69c0,2.59.17,5.19.33,7.7l.15,2.22c0,1,0,2,.06,2.94,0,.68,0,1.38,0,2.08a21.26,21.26,0,0,0,.24,2.39c.09.62.18,1.26.23,1.89,0,.83.15,1.64.24,2.32a10.34,10.34,0,0,1,0,1.57c0,.23,0,.46,0,.69a12.51,12.51,0,0,0,.13,1.36c.05.34.1.68.12,1,0,.66,0,1.33,0,2v.29s0,.08-.1.09Z" transform="translate(-581.32 -508.35)"/><path class="cls-1" d="M693.53,700.68c-.16,0-.65-.25-.66-.49-.18-3.07-.4-6.36-.73-9.65a71.4,71.4,0,0,0-2.2-11.89c-.33-1.21-.69-2.44-1-3.62-.25-.84-.49-1.69-.73-2.53-.3-1-.59-2.12-.87-3.16-.56-2.06-1.14-4.2-1.81-6.26-.81-2.51-1.73-5-2.62-7.46a120.47,120.47,0,0,1-4.19-12.93,53.73,53.73,0,0,1-.42-22.24,76,76,0,0,1,2.28-9.31,76.81,76.81,0,0,1,2.7-17.1,94.06,94.06,0,0,1,3.62-10.73c.19-.46.39-.91.57-1.3a17.29,17.29,0,0,0-2.15-2.79c-.84-.9-1.74-1.76-2.61-2.59a45.25,45.25,0,0,1-3.66-3.79l-.08-.09c-.81-1-1.92-2.33-1.63-3.72a1.48,1.48,0,0,1,1.47-1.27h.09c1.58,0,3.24,1.2,4.46,2.08l.22.16a53,53,0,0,1,4.21,3.37,5.89,5.89,0,0,1,2.21,3.39,7.41,7.41,0,0,1-1.05,4.08c-.15.31-.28.6-.41.88l-.24.57a11.58,11.58,0,0,1,1.16,2.52c1.17,3.77-.11,7.61-1.35,10.54-.66,1.54-1.38,3.09-2.08,4.58-.94,2-1.92,4.1-2.74,6.21-.71,1.8-1.35,3.63-1.91,5.41,0,.83-.05,1.66,0,2.47a57.52,57.52,0,0,0,1,10.72c.34,1.75.79,3.51,1.22,5.21.35,1.37.71,2.78,1,4.18a26.08,26.08,0,0,0,1.25,4.51,22.59,22.59,0,0,0,2,3.48c.2.31.4.62.59.93l.46.75a10.94,10.94,0,0,0,2.84,3.54,10.39,10.39,0,0,0,4.57,1.39l.62.09a13.57,13.57,0,0,0,1.89.18,4,4,0,0,0,2-.45,11.73,11.73,0,0,0,1.67-1.14,11.22,11.22,0,0,1,1.95-1.3,18.16,18.16,0,0,0,6.54-5.22c4-4.91,6.67-11,8.55-15.77a147,147,0,0,0,4.52-14.1c.65-2.28,1.32-4.64,2-6.94.61-2,1.27-4,1.9-5.91a134.4,134.4,0,0,0,4.72-16.82c.38-2,.65-3.89.81-5.72v-.11a20.12,20.12,0,0,0,0-5.2,5.72,5.72,0,0,0-1.49-3.11c-.33-.35-.7-.69-1.06-1l-.65-.6c-.85-.82-1.74-1.64-2.59-2.42-.61-.55-1.23-1.13-1.84-1.7a44.82,44.82,0,0,1-3.76-3.92c-.44-.52-.87-1-1.29-1.57a37,37,0,0,0-2.59-3l-1.36-1.44c-.84-.91-1.71-1.84-2.65-2.68l-.11-.1a24.15,24.15,0,0,1-3.46-3.54c-.48-.65-.9-1.36-1.31-2a21,21,0,0,0-1.54-2.34,12.64,12.64,0,0,0-2.52-2.25c-.31-.23-.62-.48-.91-.72s-.69-.56-1-.81a6.3,6.3,0,0,0-1.82-.78c-.22-.06-.45-.13-.67-.21a13.28,13.28,0,0,0-1.92-.54h0a3.59,3.59,0,0,0-.77-.1c-.46,0-.7.16-.76.49-.15.84.73,1.72,1.37,2.06.47.24,1,.46,1.43.68a15.05,15.05,0,0,1,2.62,1.4,8.54,8.54,0,0,1,2.21,2.63l.27.44c.24.4.5.82.77,1.21.08.12.17.22.25.33a2.21,2.21,0,0,1,.66,1.39l.6.2a24.49,24.49,0,0,1,2.7,1s.48.33.44.51a.12.12,0,0,1-.13.09h0l-.22,0a5.14,5.14,0,0,0-1.1.17,4.34,4.34,0,0,1-1.07.17,1.75,1.75,0,0,1-1.1-.36,2,2,0,0,1-.8-1.16,2,2,0,0,1-.06-.39c-.26-.1-.5-.19-.72-.29l-.73-.31a14.37,14.37,0,0,0-4-1.29,7.21,7.21,0,0,0-.79,0,4.7,4.7,0,0,0-1.7.28l-.61.25c-.38.16-.78.32-1.19.45-1,.29-2,.64-3,1l-.82.28c.34.09.68.2,1,.31s.66.21,1,.3l.64.16a7.93,7.93,0,0,1,1.88.61,23.25,23.25,0,0,1,4.61,3.44c.35.32.68.64,1,1l.13,0c.37.06.76.13,1.13.17s.86.11,1.34.21a7.54,7.54,0,0,0,.92.13c.27,0,.56,0,.85.1.09,0,.61.37.6.54a.11.11,0,0,1-.1.11,21.42,21.42,0,0,1-2.91.18h-.72a12.64,12.64,0,0,1,1.26,2c.08.17.16.35.23.52a3.8,3.8,0,0,1,3.22,2.31,16.05,16.05,0,0,1,.87,2.43,11,11,0,0,0,1.33,3.23c.3.44.59.92.87,1.37,1,1.64,2,3.34,3.82,4.26l.58.28c1.18.59,2.53,1.25,3,2.52a3.34,3.34,0,0,1-.51,2.55l-.12.24-.21.44c-.37.76-.75,1.55-1.15,2.32a44.79,44.79,0,0,0-2.32,5.83l-.24.7a22.15,22.15,0,0,1-1.29,3.09l-.49.89a16,16,0,0,0-1,1.94c-.2.5-.37,1-.54,1.51s-.43,1.29-.7,1.92c-.45,1-.83,2-1.18,3-.55,1.57-1.24,3.11-1.91,4.6-.34.76-.69,1.54-1,2.31l-.14.34a24,24,0,0,1-.34,2.7c-.1.58-.16,1.18-.22,1.76s-.12,1.23-.23,1.84c-.08.4-.18.77-.29,1.16v0a6.32,6.32,0,0,0-.2,1.63c0,.13,0,.26,0,.4a6.43,6.43,0,0,1-.21,1.24c0,.22-.09.43-.13.65v.08a11.64,11.64,0,0,1-.29,1.33,8.23,8.23,0,0,1-1.39,2.45l-.15.21c-.11.15-.26.41-.46.73-.87,1.42-2.48,4.07-4,4.07h0a1.46,1.46,0,0,1-1.12-.59c-.77-.92.08-2.56.65-3.65.12-.23.23-.44.31-.61,1-2.32,2.15-4.63,3.25-6.87,1.38-2.78,2.62-5.6,4.06-9,0-.14,0-.28,0-.43,0-1.6,0-3.22,0-4.79,0-1,0-2,0-2.92v-1.16c0-.92,0-1.87,0-2.8,0-.53.07-1.06.12-1.58s.12-1.24.13-1.86c0-1.68,0-3.38,0-5,0-.82,0-1.64,0-2.45,0-2.73.1-5.51.2-8.2.07-2,.15-4.08.18-6.13a26.78,26.78,0,0,0-1.2-9.82l-.31,0c-.51,0-1-.05-1.55-.05a14.69,14.69,0,0,1-2-.11,8,8,0,0,1-1-.21,7.22,7.22,0,0,0-1.62-.27,1.83,1.83,0,0,0-1.12.32l-.07,0a11,11,0,0,1-2.14,1.3,9.51,9.51,0,0,0-1.83,1,5.22,5.22,0,0,1-1.14.65,7.51,7.51,0,0,1-2.29.61h0a1.52,1.52,0,0,1-.88-.29,4.46,4.46,0,0,1-2.15.71,1.9,1.9,0,0,1-1.52-.69,1.16,1.16,0,0,1-.31-.87c.08-.94,1.28-1.93,2.15-2.65a9.41,9.41,0,0,0,.78-.68l.55-.6a10.9,10.9,0,0,1,1.35-1.37c.31-.24.63-.47.94-.69s.63-.44.93-.68l.46-.38a11,11,0,0,1,1.33-1l.24-.15a3.83,3.83,0,0,0,.91-.67c-.22.06-.45.15-.62.21l-.18.06c-.48.17-1,.37-1.61.64a18.75,18.75,0,0,1-3.53,1.18l-.81.18a18.93,18.93,0,0,1-2.17.43,4.17,4.17,0,0,1-.52.05,1.29,1.29,0,0,1-.6-.13,1.6,1.6,0,0,1-.63-2.12c.46-1.13,1.8-1.88,2.87-2.48l.51-.29a15.75,15.75,0,0,1,2.48-1.15c-.45-.13-.9-.29-1.33-.45-.58-.21-1.18-.42-1.76-.57-1.62-.42-3.26-.75-4.66-1l-3.77-.67c-5.15-.89-10.47-1.8-15.29-4a18.3,18.3,0,0,1-6.81-5,19.63,19.63,0,0,1-2.7-4.31,18.81,18.81,0,0,1-.63-1.78c-.09-.31-.19-.64-.3-.95a6,6,0,0,1-.47-2.48.13.13,0,0,1,.14-.12,1,1,0,0,1,.56.31.24.24,0,0,1,.09.2,6.52,6.52,0,0,0,.57,2.7l.09.25c.1.28.19.57.28.85a12.43,12.43,0,0,0,.58,1.58,16.44,16.44,0,0,0,6.89,7.39,37,37,0,0,0,9.88,3.38c2.3.52,4.67.93,7,1.34,1.08.19,2.2.38,3.3.59s2.89.55,4.53,1c.81.2,1.53.4,2.2.61l.84.3a10.52,10.52,0,0,0,1.74.51l.82-.28.52-.17,1-.36c.49-.18,1-.37,1.51-.53l.65-.19a11.45,11.45,0,0,0,1.59-.54,6,6,0,0,1,2.54-.55,7.71,7.71,0,0,1,1.85.24,20.45,20.45,0,0,1,3.18,1.16l.89.39.7.27s0-.08,0-.12a2.26,2.26,0,0,0-.51-1l-.06-.09c-.37-.51-.7-1.06-1-1.58s-.68-1.12-1.07-1.65a7.73,7.73,0,0,0-3.35-2.21c-.43-.19-.87-.38-1.28-.59a3.92,3.92,0,0,1-2.15-2.24,1.2,1.2,0,0,1,0-1.08,1.17,1.17,0,0,1,1-.38,3.4,3.4,0,0,1,.53,0,13.72,13.72,0,0,1,2.22.61c.4.14.83.29,1.25.41a8.78,8.78,0,0,1,3.12,1.87c.29.23.58.47.89.7a13.53,13.53,0,0,1,3.39,3.43c.31.46.6.94.88,1.41a19.24,19.24,0,0,0,2.3,3.21c.63.68,1.34,1.31,2,1.92s1.44,1.29,2.1,2c.37.39.73.78,1.1,1.16.86.9,1.75,1.83,2.55,2.8.39.47.77.94,1.15,1.42,1,1.17,1.92,2.39,3,3.5,1.25,1.33,2.63,2.57,4,3.78l.7.62c1.27,1.15,2.59,2.34,3.77,3.59a6.88,6.88,0,0,1,1.75,4.31,30,30,0,0,1-.28,5.73c-.22,1.89-.54,3.82-1,5.91a146.33,146.33,0,0,1-4.46,15.47c-.76,2.33-1.55,4.74-2.28,7.13-.57,1.89-1.12,3.83-1.65,5.7a137.11,137.11,0,0,1-5.26,15.91c-2.34,5.51-5.06,11.2-9.12,15.5a17.28,17.28,0,0,1-3.29,2.76,16.15,16.15,0,0,1-1.57.86,14.9,14.9,0,0,0-2.07,1.21l-.43.33a6,6,0,0,1-3.27,1.6h-.33a22.48,22.48,0,0,1-4.19-.54,9.81,9.81,0,0,1-3.49-1.29,10.12,10.12,0,0,1-2.89-3.14l-.35-.53a27.74,27.74,0,0,1-4.06-7.75c-.33-1.19-.59-2.43-.84-3.62l-.21-1c-.21-1-.47-1.91-.72-2.84-.16-.57-.32-1.16-.46-1.75a55,55,0,0,1-1.57-11c0-.61-.05-1.23-.05-1.85a66.74,66.74,0,0,0-2.39,15,48.37,48.37,0,0,0,.85,11.43,80.33,80.33,0,0,0,3.15,10.85c.49,1.4,1,2.81,1.5,4.17.78,2.11,1.57,4.29,2.3,6.46.78,2.35,1.45,4.78,2.09,7.13.22.79.43,1.58.65,2.37.3,1.07.62,2.16.93,3.21.84,2.87,1.71,5.84,2.31,8.83a120.79,120.79,0,0,1,1.74,16.58v.14a.11.11,0,0,1,0,.08A.11.11,0,0,1,693.53,700.68ZM705,607.47c-.41,1-.88,2.1-1.39,3.16-.4.83-.8,1.65-1.21,2.47-.63,1.28-1.28,2.6-1.89,3.92-.26.56-.56,1.14-.84,1.7a25.15,25.15,0,0,0-1.85,4.28c-.08.27-.2.71-.06.9a.33.33,0,0,0,.26.1,1.64,1.64,0,0,0,.74-.38l.09-.07a8.41,8.41,0,0,0,1.25-1.17,10.11,10.11,0,0,0,1.06-1.63c.2-.34.4-.69.62-1s.35-.5.53-.74a7.61,7.61,0,0,0,1-1.53,7.73,7.73,0,0,0,.52-2c0-.13,0-.25.07-.37s.07-.35.11-.53a5,5,0,0,0,.17-1c0-.18,0-.36,0-.53a4.11,4.11,0,0,1,.05-1c.06-.28.14-.56.22-.83a7.32,7.32,0,0,0,.24-.92,16.88,16.88,0,0,0,.22-1.74C704.94,608.22,705,607.84,705,607.47ZM688,583c-1.24,3-2.33,6-3.24,9a79.6,79.6,0,0,0-3.18,16.12,96.52,96.52,0,0,1,3.87-9.25c.14-.27.27-.55.4-.82,1.54-3.19,3.13-6.48,3.27-10A10.4,10.4,0,0,0,688,583Zm17.68-26a19.87,19.87,0,0,1,1.16,5.27,56.5,56.5,0,0,1,.09,6.88v.08c0,.73,0,1.47,0,2.2,0,1.64-.06,3.32-.17,5-.15,2.43-.15,4.91-.14,7.3,0,2.63,0,5.36-.2,8-.15,2.11-.1,4.28,0,6.37,0,1.3.07,2.64.05,4,.38-.87.75-1.75,1.13-2.63.51-1.18,1-2.4,1.38-3.59l0,0c.2-.57.44-1.12.68-1.65s.47-1.07.66-1.62c.12-.34.24-.68.34-1a17.68,17.68,0,0,1,.87-2.25c.21-.42.44-.83.67-1.23s.63-1.11.89-1.7c.46-1.07.84-2.2,1.19-3.3s.72-2.18,1.17-3.23c.33-.77.72-1.51,1.09-2.24.2-.38.4-.77.59-1.16.11-.22.23-.46.36-.7a8,8,0,0,0,1-2.31c.23-1.42-1.15-2.1-2.26-2.65l-.34-.17a8.36,8.36,0,0,1-2-1.3,16.18,16.18,0,0,1-2.69-3.53c-.31-.49-.62-1-1-1.48a11.54,11.54,0,0,1-1.42-3.38,20.83,20.83,0,0,0-.75-2.18,2.37,2.37,0,0,0-2-1.65Zm-26.29,11.45a1.26,1.26,0,0,0-1,.41,1.63,1.63,0,0,0-.33,1.31c.2,1.5,1.59,2.91,2.71,4l.35.36c.69.7,1.4,1.39,2.1,2.05.43.41.86.82,1.28,1.24a26.62,26.62,0,0,1,3.19,3.61,18.67,18.67,0,0,0,1.36-3.52c.52-2.17-.85-3.65-2.4-4.92l-.74-.6a34.73,34.73,0,0,0-3.73-2.82,6.38,6.38,0,0,0-2.68-1.15Zm15.33-19a1.3,1.3,0,0,1,.71.19c.14.09.41.26.36.46-.15.61-.72,1-1.23,1.25l-.14.09a13,13,0,0,0-1.47,1.09l-.44.36c-.31.24-.63.47-.94.69s-.78.56-1.15.86a10.11,10.11,0,0,0-1.11,1.16l-.55.62c-.32.33-.68.64-1,.93s-.66.57-1,.89-1,1.29-.81,1.65c.06.14.22.2.46.2l.34,0a4.56,4.56,0,0,0,1.86-.76,2.11,2.11,0,0,1,.46-1.2l.11-.16a4.64,4.64,0,0,1,1.94-1.65l.61-.34.24-.27a6.82,6.82,0,0,1,3.74-2.35,10.41,10.41,0,0,1,1.59-.18,7.47,7.47,0,0,1,3-.78h.25a10.62,10.62,0,0,1,1.42.11,31.54,31.54,0,0,0-3.79-3.09,8.59,8.59,0,0,0-3.19-1.31c-.37-.09-.73-.21-1.07-.32a8.67,8.67,0,0,0-2.13-.49,3.28,3.28,0,0,1-.43,0,17.39,17.39,0,0,0-3.64,1.65l-.61.37c-1,.57-2.07,1.21-2.37,2.28a1.34,1.34,0,0,0,0,.69.54.54,0,0,1,0,.17h0l.1,0,.15,0a3,3,0,0,0,.62-.11l.25-.06c.51-.09,1-.21,1.52-.32l.78-.18a14.74,14.74,0,0,0,3.07-1,16.63,16.63,0,0,1,2.51-1A3.35,3.35,0,0,1,694.7,549.4Zm-2.18,6.82c-.23.27-.45.56-.66.84a15.37,15.37,0,0,1-1.44,1.68,7.66,7.66,0,0,1-.8.67,2.28,2.28,0,0,0,.67-.17l.31-.1.23-.06a5.93,5.93,0,0,0,1.28-.46,4.81,4.81,0,0,0,.6-.4c.19-.14.39-.28.59-.4a13.19,13.19,0,0,1,1.21-.57,7.85,7.85,0,0,0,1.87-1,2.34,2.34,0,0,1,1.61-.64h.22a14.5,14.5,0,0,1,1.75.28,11.92,11.92,0,0,0,2,.28h.27c.86,0,1.67,0,2.5.14a11.74,11.74,0,0,0-1.42-2.5l-1.89-.09c-.92,0-1.86-.1-2.8-.11h-.77l-.55.28c-.6.32-1.22.6-1.82.86l-.92.41C693.89,555.44,693.26,555.79,692.52,556.22Zm10.93-3,.73,0h.44l-.24,0-1.09-.16Zm-3.86-.26.71,0c.62,0,1.24.07,1.85.13l.66.06-.21-.24a10.43,10.43,0,0,0-1.58-.14h-.46A6.33,6.33,0,0,0,699.59,552.94Zm7.34-6.39c.06.58.18,1,.77,1l.33,0,.55-.13.45-.1-1.46-.51Z" transform="translate(-581.32 -508.35)"/><path class="cls-1" d="M596.73,704.32c-.22,0-.46-.1-.48-.33-.08-1.09-.13-2.16-.16-3.19a81,81,0,0,1,3.67-25c1.14-3.87,2.51-7.68,3.83-11.36,1.57-4.38,2.93-7.92,4.29-11.13A104,104,0,0,1,613,642.75c.92-1.63,1.92-3.18,3-4.76a16.8,16.8,0,0,0,.92-1.65c.18-.34.36-.7.56-1s.42-.69.63-1a12,12,0,0,0,.89-1.51l.2-.39a4.26,4.26,0,0,0,.64-2.14,9.65,9.65,0,0,0-.33-1.58c-.1-.36-.2-.74-.27-1.11-.17-.9-.28-1.83-.39-2.72a33.76,33.76,0,0,0-.63-3.84c-.37-1.49-.87-3-1.35-4.4-.18-.54-.36-1.07-.53-1.61l-.69-2.16c-.42-1.32-.86-2.68-1.31-4-2.57-7.59-5.52-16.44-8-25.31a.29.29,0,0,1,0-.26.52.52,0,0,1,.42-.18.4.4,0,0,1,.42.25c.3,1.07.6,2.13.91,3.19,1.25,4.33,2.57,8.63,3.94,12.79.63,1.92,1.29,3.86,1.94,5.74.76,2.23,1.55,4.53,2.29,6.81q1,3,2,6.06a31,31,0,0,1,1.4,6c.12,1,.25,2.19.44,3.31.08.47.2.93.31,1.38s.23.92.31,1.39a3.84,3.84,0,0,1-.51,2.32l0,.09a16.3,16.3,0,0,1-1.34,2.44,15.84,15.84,0,0,0-.91,1.59c-.18.35-.37.72-.58,1.07-.31.54-.66,1.06-1,1.57l-.6.9c-.93,1.45-1.85,3-2.89,5a118.48,118.48,0,0,0-4.93,10.78c-1.28,3.16-2.56,6.58-4.15,11.09-1.3,3.72-2.67,7.67-3.73,11.64A76.8,76.8,0,0,0,597.18,704a.28.28,0,0,1-.08.21A.5.5,0,0,1,596.73,704.32Z" transform="translate(-581.32 -508.35)"/><path class="cls-1" d="M647.93,556.73c-.85,0-1.34-.35-1.37-1s.34-1.15,1.1-1.64a16.49,16.49,0,0,1,1.61-.85l.53-.25c1.41-.7,2.71-1.32,4-1.89a23.2,23.2,0,0,0,.69-3.08,32.32,32.32,0,0,0,.54-7.31,41.43,41.43,0,0,0-.71-5.18c-.24-1.27-.57-2.94-1-4.61-.12-.43-.24-.86-.35-1.29a23.8,23.8,0,0,1-1.25-7.61c0-.22.5-.43.68-.43a.21.21,0,0,1,.12,0,.16.16,0,0,1,0,.09,13.34,13.34,0,0,0,.08,2.25,39.09,39.09,0,0,0,1.24,5.6c.32,1.2.66,2.44.91,3.67a37.2,37.2,0,0,1,1.07,10.55c-.08,1-.24,2.06-.39,3.06v.06c-.17,1.15-.35,2.08-.56,2.93-.08.31-.16.6-.24.88a82.45,82.45,0,0,1,8.67-3.35,53.17,53.17,0,0,1,9.37-2.08,42,42,0,0,1,5.11-.32,39.38,39.38,0,0,1,4.62.27l.3,0a9.75,9.75,0,0,1,2.05.39,4,4,0,0,0,1.17.26H686c.39,0,.79.06,1.19.11s.68.1,1,.16a10.75,10.75,0,0,0,1.51.2h2.71c.11,0,.15.05.16.08s-.07.21-.14.27a1,1,0,0,1-.52.24H689.3a9.45,9.45,0,0,1-1.61-.19l-.74-.13c-.44-.06-.87-.1-1.28-.14h-.23a4.86,4.86,0,0,1-.93-.14c-.16,0-.31-.1-.45-.15a6.17,6.17,0,0,0-.61-.19,7.72,7.72,0,0,0-.82-.12l-.23,0c-.78-.1-1.61-.19-2.44-.25s-1.8-.09-2.71-.09a42.87,42.87,0,0,0-6.65.53,54.57,54.57,0,0,0-8.94,2.27c-2.28.78-4.64,1.72-7.22,2.87A8.78,8.78,0,0,1,652.2,555a6.3,6.3,0,0,1-2.65,1.49,6.15,6.15,0,0,1-1.58.22ZM653,551.9c-1.33.61-2.72,1.29-4.26,2.06l-.15.08c-.55.26-1.11.54-1.2,1.17a.79.79,0,0,0,.24.72,1.13,1.13,0,0,0,.78.21h.17a4.54,4.54,0,0,0,2.51-.75,5.76,5.76,0,0,0,1.66-1.91,11.24,11.24,0,0,0,.83-1.85Z" transform="translate(-581.32 -508.35)"/><path class="cls-1" d="M607,658.24c-.23,0-.65-.1-.65-.33v-5a14.36,14.36,0,0,0-.13-2.53,13.16,13.16,0,0,1-.12-2.17c0-.25,0-.51,0-.76,0-.52-.08-1-.14-1.55s-.12-.89-.14-1.34c0-.71,0-1.43,0-2.13,0-.3,0-.61,0-.92v-3.8c0-.74,0-1.51,0-2.27,0-.46.07-.93.11-1.39s.1-1.08.13-1.63a50.51,50.51,0,0,1,.71-6l.07-.46c.3-1.81.62-3.68,1-5.5.13-.66.28-1.33.43-2a34.09,34.09,0,0,0,.73-3.83c.12-1.12.19-2.27.26-3.38.06-.88.11-1.79.2-2.68s.21-2,.32-2.93.25-2.09.35-3.14c.19-2.18.28-4.17.29-6.1,0-.05,0-.15.25-.15a.92.92,0,0,1,.58.19.18.18,0,0,1,.07.14c0,.52,0,1,0,1.53,0,1.87-.19,3.86-.42,6.09-.07.71-.16,1.43-.24,2.13-.15,1.29-.31,2.62-.4,3.94l-.09,1.3a39.91,39.91,0,0,1-.47,4.72c-.17.93-.38,1.86-.58,2.77s-.45,2.06-.63,3.11l-.33,1.86c-.24,1.35-.5,2.75-.7,4.13-.16,1.09-.28,2.07-.36,3,0,.49-.08,1-.11,1.48s-.06,1-.11,1.55c-.15,1.71-.15,3.45-.15,5.14v.89c0,.44,0,.89,0,1.33a32.91,32.91,0,0,0,.16,4.65,20.6,20.6,0,0,1,.13,2.48v.46a14.13,14.13,0,0,0,.12,1.46,14.28,14.28,0,0,1,.13,1.48c0,1.36,0,2.75,0,4.09,0,.66,0,1.32,0,2a.14.14,0,0,1-.1.13Z" transform="translate(-581.32 -508.35)"/><path class="cls-1" d="M624.05,528a7.94,7.94,0,0,1-1.46-.14l-1.37-.27-1.28-.26a3.48,3.48,0,0,1-2-.91,4.94,4.94,0,0,1-.93-1.86l0,0c-.19-.56-.39-1.13-.59-1.68-.39-1.07-.79-2.17-1.09-3.29-.43-1.56-.74-3.18-1-4.73A54,54,0,0,0,613,509a.14.14,0,0,1,0-.15.77.77,0,0,1,.54-.19c.24,0,.31.1.33.16q.2.63.36,1.26c.41,1.5.71,3.06,1,4.57a52.84,52.84,0,0,0,1.28,5.58c.27.9.58,1.76.84,2.48.12.33.24.65.35,1s.28.78.43,1.18a2.84,2.84,0,0,0,1.21,1.63,5.26,5.26,0,0,0,1.63.45l.56.1.56.13a11.3,11.3,0,0,0,1.92.31h.25a9.26,9.26,0,0,0,2.06-.27,33.72,33.72,0,0,0,4.42-1.48l.27-.1a44.4,44.4,0,0,0,4.74-2.11c1.53-.82,3-1.78,4.38-2.7l.36-.23c.56-.38,1.15-.76,1.71-1.17.32-.24.64-.5.94-.75s.68-.54,1-.79l1-.74c.13-.09.27-.16.41-.24a2.65,2.65,0,0,0,.52-.31,4.94,4.94,0,0,1,.82-.6,2.54,2.54,0,0,0,.81-.58.73.73,0,0,1,.51-.16c.12,0,.28,0,.32.12a.15.15,0,0,1,0,.18,2.87,2.87,0,0,1-.86.66,5.5,5.5,0,0,0-.84.58,3.19,3.19,0,0,1-.57.36,4.1,4.1,0,0,0-.4.23,23.28,23.28,0,0,0-2.12,1.58,39.24,39.24,0,0,1-3.71,2.6l-.56.35a39.3,39.3,0,0,1-4.63,2.64c-1.41.66-3,1.29-5,2a21.87,21.87,0,0,1-4.84,1.33A8.18,8.18,0,0,1,624.05,528Z" transform="translate(-581.32 -508.35)"/><path class="cls-1" d="M628.84,517a2,2,0,0,1-1.07-.28,4.4,4.4,0,0,1-.41-.31,2.15,2.15,0,0,0-.53-.38,5.65,5.65,0,0,0-.57-.23,4.58,4.58,0,0,1-.58-.22c-.25-.12-.49-.26-.72-.39l-.38-.22-.78-.36-.37-.17a2.77,2.77,0,0,0-1.15-.3h-1a5.53,5.53,0,0,1-1.45-.16,4.2,4.2,0,0,1-2-1.18c-.15-.15-.28-.38-.14-.52a.22.22,0,0,1,.17-.07.6.6,0,0,1,.37.19,3.23,3.23,0,0,0,2,.95,5.53,5.53,0,0,0,.71,0h.5l.48,0a2.3,2.3,0,0,1,.62.07,6,6,0,0,1,.83.33l.33.15a9.45,9.45,0,0,1,1.05.51l.17.1c.29.16.59.33.9.47l.43.16a3.44,3.44,0,0,1,.64.26,3.68,3.68,0,0,1,.59.42l.29.23a1,1,0,0,0,.66.16.62.62,0,0,1,.49.35.33.33,0,0,1,0,.32.19.19,0,0,1-.18.1Z" transform="translate(-581.32 -508.35)"/><path class="cls-1" d="M627.4,516.48a.3.3,0,0,1-.25-.09.86.86,0,0,0-.7-.23,4.92,4.92,0,0,0-.56,0l-.29,0c-.26,0-.53,0-.86,0h-2.68c-.42,0-.75,0-1.06,0a1.78,1.78,0,0,1-1.54-.83,2.62,2.62,0,0,1-.07-1.7c.07-.23.38-.29.48-.31l.19,0h.11a.35.35,0,0,1,.26.09.17.17,0,0,1,.05.15c0,.11-.09.2-.25.26-.06.3-.16,1.1.26,1.48a2.36,2.36,0,0,0,1.58.36h2.59c.59,0,1.15,0,1.75,0h.37A1.53,1.53,0,0,1,628,516a.22.22,0,0,1,0,.22A.72.72,0,0,1,627.4,516.48Z" transform="translate(-581.32 -508.35)"/><path class="cls-1" d="M623,519.45a6.82,6.82,0,0,1-.85-.05,5.63,5.63,0,0,1-3.15-1.94.86.86,0,0,1-.25-.54.26.26,0,0,1,.05-.18.15.15,0,0,1,.11,0,.22.22,0,0,1,.15.08,5,5,0,0,0,3,1.78c.21,0,.44,0,.71,0h1.86a2.39,2.39,0,0,0,.63-.06l.18,0a2.86,2.86,0,0,1,.74-.13c.22,0,.41.43.41.65s-.08.2-.16.2a2.46,2.46,0,0,0-.6.12,3.63,3.63,0,0,1-.45.1,3,3,0,0,1-.45,0H623Z" transform="translate(-581.32 -508.35)"/><path class="cls-1" d="M611.92,542.22a6.2,6.2,0,0,1-.9-.07,13.47,13.47,0,0,1-2-.43,7.43,7.43,0,0,1-5.43-8.08,16.14,16.14,0,0,1,.85-4.72,14.74,14.74,0,0,1,2.09-4c.67-.93,1.41-1.82,2.13-2.68a28.43,28.43,0,0,0,3.25-4.42,11.29,11.29,0,0,0,1.4-4.31,19.69,19.69,0,0,0-.14-3.84c0-.4-.08-.81-.11-1.21v0l0,0s.09,0,.19,0,.67,0,.69.29c0,.4.07.81.11,1.22a15.73,15.73,0,0,1,0,4.89,12.24,12.24,0,0,1-1.62,4,32.46,32.46,0,0,1-2.9,3.84c-.79.94-1.61,1.92-2.32,2.94a14.37,14.37,0,0,0-1.94,3.85,16.32,16.32,0,0,0-.78,4.45,7.88,7.88,0,0,0,2.24,6.2,6.73,6.73,0,0,0,2.74,1.49,8,8,0,0,0,1.87.32h0a2.47,2.47,0,0,0,1.71-.67.29.29,0,0,1,.17,0c.21,0,.62.16.67.29a.11.11,0,0,1,0,.11,2.81,2.81,0,0,1-.92.57A3.43,3.43,0,0,1,611.92,542.22Z" transform="translate(-581.32 -508.35)"/><path class="cls-1" d="M633.3,554.15a4.76,4.76,0,0,1-2.27-.71l-.43-.24a6,6,0,0,0-1.68-.76,4.59,4.59,0,0,0-1.06-.12,11.53,11.53,0,0,0-2.6.4c-.49.11-1,.23-1.5.3a22.22,22.22,0,0,1-3.36.24h0c-.6,0-1.23,0-1.88-.06a72.48,72.48,0,0,1-10-1.54l-.46-.1a.48.48,0,0,1-.32-.22.29.29,0,0,1,0-.24.37.37,0,0,1,.4-.25h.13l.45.09c1.72.35,3.5.71,5.26,1a39.9,39.9,0,0,0,6.3.6,19.43,19.43,0,0,0,4.16-.41L625,552a13.26,13.26,0,0,1,2.86-.42,5.1,5.1,0,0,1,1.65.25,7.93,7.93,0,0,1,1.43.71,4.91,4.91,0,0,0,2.35.86h.09a.44.44,0,0,1,.47.39c0,.17-.12.33-.4.34Z" transform="translate(-581.32 -508.35)"/><path class="cls-1" d="M627.87,516.65a.58.58,0,0,1-.56-.33.67.67,0,0,0-.23-.28l-.06,0a3.19,3.19,0,0,1-.4-.42,3,3,0,0,0-.28-.34,3.87,3.87,0,0,1-.48-.63,2.74,2.74,0,0,0-.57-.79,5.82,5.82,0,0,0-.87-.62,2.58,2.58,0,0,0-1-.4c-.3,0-.61-.07-.91-.09l-.36,0-.73,0a6.85,6.85,0,0,1-1.74-.21l-.17-.06a2.16,2.16,0,0,0-.59-.13h-.1c-.12,0-.23.09-.18.46a.19.19,0,0,1,0,.18.25.25,0,0,1-.22.09c-.23,0-.58-.16-.61-.42a.78.78,0,0,1,.49-.94,1.31,1.31,0,0,1,.41-.06,2.66,2.66,0,0,1,.82.15,5,5,0,0,0,1.22.23c.57,0,1.12.05,1.54.08l.37,0a5.3,5.3,0,0,1,1.05.14,4.43,4.43,0,0,1,1.28.59,7,7,0,0,1,1,.75,3.46,3.46,0,0,1,.63.86l.08.13a2.67,2.67,0,0,0,.37.46l0,0a2.43,2.43,0,0,1,.2.25c.06.07.12.15.19.22a2.66,2.66,0,0,0,.24.23,1.23,1.23,0,0,1,.46.61.28.28,0,0,1,0,.24.31.31,0,0,1-.26.1Z" transform="translate(-581.32 -508.35)"/></svg>