<svg id="Layer_1" data-name="Layer 1" xmlns="http://www.w3.org/2000/svg" width="26.6" height="26.6" viewBox="0 0 26.6 26.6"><defs><style>.cls-1{fill:#988f87;}</style></defs><path class="cls-1" d="M128,141.3c-3.62,0-4.09,0-5.52-.08a9.8,9.8,0,0,1-3.22-.62,6.71,6.71,0,0,1-3.86-3.86,9.8,9.8,0,0,1-.62-3.22c-.06-1.43-.08-1.9-.08-5.52s0-4.09.08-5.52a9.8,9.8,0,0,1,.62-3.22,6.71,6.71,0,0,1,3.86-3.86,9.8,9.8,0,0,1,3.22-.62c1.43-.06,1.9-.08,5.52-.08s4.09,0,5.52.08a9.8,9.8,0,0,1,3.22.62,6.71,6.71,0,0,1,3.86,3.86,9.8,9.8,0,0,1,.62,3.22c.06,1.43.08,1.9.08,5.52s0,4.09-.08,5.52a9.8,9.8,0,0,1-.62,3.22,6.71,6.71,0,0,1-3.86,3.86,9.8,9.8,0,0,1-3.22.62C132.09,141.28,131.62,141.3,128,141.3Zm0-24.37c-3.58,0-4,0-5.41.08a7.4,7.4,0,0,0-2.52.47,4.51,4.51,0,0,0-2.59,2.59,7.4,7.4,0,0,0-.47,2.52c-.06,1.41-.08,1.83-.08,5.41s0,4,.08,5.41a7.4,7.4,0,0,0,.47,2.52,4.51,4.51,0,0,0,2.59,2.59,7.4,7.4,0,0,0,2.52.47c1.41.06,1.83.08,5.41.08s4,0,5.41-.08a7.4,7.4,0,0,0,2.52-.47,4.51,4.51,0,0,0,2.59-2.59,7.4,7.4,0,0,0,.47-2.52c.06-1.41.08-1.83.08-5.41s0-4-.08-5.41a7.4,7.4,0,0,0-.47-2.52,4.51,4.51,0,0,0-2.59-2.59,7.4,7.4,0,0,0-2.52-.47C132,117,131.58,116.93,128,116.93Zm0,17.86a6.79,6.79,0,1,1,6.79-6.79A6.8,6.8,0,0,1,128,134.79Zm0-11.34a4.55,4.55,0,1,0,4.55,4.55A4.55,4.55,0,0,0,128,123.45Zm7.15-1.08a1.52,1.52,0,1,1,1.51-1.52A1.52,1.52,0,0,1,135.15,122.37Z" transform="translate(-114.7 -114.7)"/></svg>