<svg id="Layer_1" data-name="Layer 1" xmlns="http://www.w3.org/2000/svg" width="24.05" height="24.05" viewBox="0 0 24.05 24.05"><defs><style>.cls-1{fill:#988f87;}</style></defs><path class="cls-1" d="M128,140c-3.27,0-3.7,0-5-.07a8.61,8.61,0,0,1-2.91-.56,6,6,0,0,1-3.49-3.49,8.61,8.61,0,0,1-.56-2.91c-.06-1.29-.07-1.72-.07-5s0-3.7.07-5a8.61,8.61,0,0,1,.56-2.91,6.08,6.08,0,0,1,3.49-3.49,8.61,8.61,0,0,1,2.91-.56c1.29-.06,1.72-.07,5-.07s3.7,0,5,.07a8.61,8.61,0,0,1,2.91.56,6.08,6.08,0,0,1,3.49,3.49A8.61,8.61,0,0,1,140,123c.06,1.29.07,1.72.07,5s0,3.7-.07,5a8.61,8.61,0,0,1-.56,2.91,6,6,0,0,1-3.49,3.49A8.61,8.61,0,0,1,133,140C131.7,140,131.27,140,128,140Zm0-22c-3.23,0-3.62,0-4.9.08a6.6,6.6,0,0,0-2.27.42,3.75,3.75,0,0,0-1.42.92,3.83,3.83,0,0,0-.92,1.42,6.62,6.62,0,0,0-.42,2.28c-.06,1.27-.08,1.66-.08,4.89s0,3.62.08,4.89a6.62,6.62,0,0,0,.42,2.28,3.83,3.83,0,0,0,.92,1.42,3.75,3.75,0,0,0,1.42.92,6.6,6.6,0,0,0,2.27.42c1.28.06,1.67.08,4.9.08s3.62,0,4.89-.08a6.62,6.62,0,0,0,2.28-.42,3.75,3.75,0,0,0,1.42-.92,3.83,3.83,0,0,0,.92-1.42,6.62,6.62,0,0,0,.42-2.28c.06-1.27.08-1.66.08-4.89s0-3.62-.08-4.9a6.6,6.6,0,0,0-.42-2.27,4,4,0,0,0-2.34-2.34,6.62,6.62,0,0,0-2.28-.42C131.62,118,131.23,118,128,118Zm0,16.14a6.13,6.13,0,1,1,6.13-6.13A6.14,6.14,0,0,1,128,134.13Zm0-10.25a4.12,4.12,0,1,0,4.12,4.12A4.13,4.13,0,0,0,128,123.88Zm6.46-1a1.37,1.37,0,1,1,1.37-1.37A1.38,1.38,0,0,1,134.46,122.91Z" transform="translate(-115.98 -115.98)"/></svg>