<svg id="Layer_1" data-name="Layer 1" xmlns="http://www.w3.org/2000/svg" width="44.38" height="51.98" viewBox="0 0 44.38 51.98"><defs><style>.cls-1{fill:#756b62;}</style></defs><path class="cls-1" d="M-2.2,42a2.26,2.26,0,0,1-.95-.16.49.49,0,0,1-.18-.41l-.58-3.14a.91.91,0,0,1,.72-1,.39.39,0,0,1,.15,0,1,1,0,0,1,.86.74l.48,2.14h.45A4,4,0,0,0-.38,40a3.3,3.3,0,0,1,.65-.08A86.07,86.07,0,0,1,13.79,39c2.73,0,5.51.08,8,.14l3.32.2c.85,0,1.68,0,2.5.09s1.78.1,2.65.1h4.55a1.86,1.86,0,0,0,1.35-.36l.17-.17V37.81c-.1-1-.15-2-.19-3s-.1-2-.2-3a17,17,0,0,0-.09-1.7c-.05-.55-.09-1.11-.09-1.66s0-1-.1-1.48a12.42,12.42,0,0,1-.09-1.36c-.19-2.51-.38-5-.38-7.39-.19-7.69-.38-15.84-.38-23.7,0-1.35-.33-2.08-2.09-2.08C24.45-8,17-8.3,9.25-8.3c-1.92,0-3.91,0-6,.05h0c-1.89,0-2.53,0-2.86.35-.51.52-.54,2.64-.54,3.06v.76c0,.45-.33,1-.76,1s-.95-.33-.95-.76V-5.22C-1.28-9.66-.67-10,3.3-10c2.06,0,4,0,6,0,7.79,0,15.34.25,23.76.8,2.59.17,3.64,1.27,3.64,3.79,0,7.78.19,15.89.38,23.52,0,2.29.19,4.81.38,7.23,0,.45,0,.95.1,1.44s.09.91.09,1.36,0,1.17.1,1.76.09,1.1.09,1.66a56,56,0,0,0,.38,5.93,3.47,3.47,0,0,1-.78,2.57,4.2,4.2,0,0,1-2.63.78H25.1l-3.19-.19h-.14c-2.39-.07-5.09-.14-7.76-.14a82.08,82.08,0,0,0-13.26.91,6.6,6.6,0,0,1-1,.2c-.3.05-.62.1-1,.19l-.86.17Z" transform="translate(6.2 10)"/><path class="cls-1" d="M9.55,14.87c-1.68,0-2.48-.81-2.65-2.7V7.1c-.19-1.92-.19-4-.19-5.87C6.71-1.28,7.42-2,10-2.19h.15a16.19,16.19,0,0,0,3-.2,39.4,39.4,0,0,1,4.82-.37c.76,0,1.52-.08,2.29-.08a52.11,52.11,0,0,1,6.36.45,1.08,1.08,0,0,1,.63.76l.2,1.23a16,16,0,0,0,.19,3.05c.19,3.19.57,6.46.95,9.63a1,1,0,0,1-.32,1.16l-.28.26a1.21,1.21,0,0,1-1.11.59ZM8.6.27a.43.43,0,0,0-.08.11,4.34,4.34,0,0,0-.23.4l0,0,0,.13c0,1.17,0,2.19.1,3.18S8.42,6,8.42,6.91v6.26h.76l17.32-.59L26.42,12c-.19-1.51-.33-3-.47-4.53s-.28-3-.47-4.57c0-.4,0-.87-.09-1.36s-.1-1-.1-1.6V-.77l-.48-.08a24.11,24.11,0,0,0-4.08-.32c-.92,0-1.86,0-2.88.12h0a38.58,38.58,0,0,0-4.75.38h0c-.44,0-1,.05-1.47.1s-1,.09-1.46.09a3,3,0,0,1-1,.19H8.61V.28A0,0,0,0,0,8.6.27Z" transform="translate(6.2 10)"/><path class="cls-1" d="M-5.2,16.77c-.66,0-1-.31-1-.95,0-.43.49-.75.94-.75l6.6.37a.91.91,0,0,1,.79,1,.72.72,0,0,1-.74.76Z" transform="translate(6.2 10)"/><path class="cls-1" d="M-4.11.09a.73.73,0,0,1-.74-.76c0-.58.29-.95.76-.95L2.2-2a.89.89,0,0,1,.91.76c0,.45-.32,1-.76,1Z" transform="translate(6.2 10)"/><path class="cls-1" d="M-5.23,11.27c-.43,0-.84-.54-1-.94a.92.92,0,0,1,.78-.76l6.48-.38A.89.89,0,0,1,2,10c0,.44-.32.94-.75.94Z" transform="translate(6.2 10)"/><path class="cls-1" d="M-4.86,5.77A.72.72,0,0,1-5.61,5c0-.45.33-.95.76-.95l6.29-.38a.89.89,0,0,1,.91.76c0,.45-.32,1-.75,1Z" transform="translate(6.2 10)"/><path class="cls-1" d="M-4.83,34.4a1.07,1.07,0,0,1-1-.95c0-.43.5-.76,1-.76l6.62.19c.44,0,.77.5.77.95a.73.73,0,0,1-.75.76Z" transform="translate(6.2 10)"/><path class="cls-1" d="M-4.86,28.52a.88.88,0,0,1-.75-.76c0-.44.33-.94.76-.94l6.27-.19.34,0a.54.54,0,0,1,.59.61c0,.44-.32.94-.75.94Z" transform="translate(6.2 10)"/><path class="cls-1" d="M-5.24,23A.72.72,0,0,1-6,22.27c0-.45.33-.95.76-.95l6.48-.38a.89.89,0,0,1,.91.76.92.92,0,0,1-.94.94Z" transform="translate(6.2 10)"/></svg>