<svg id="Layer_1" data-name="Layer 1" xmlns="http://www.w3.org/2000/svg" width="46.16" height="59.88" viewBox="0 0 46.16 59.88"><defs><style>.cls-1{fill:#756b62;}</style></defs><path class="cls-1" d="M81.59,136.11a.94.94,0,0,1-.67-.27,1.21,1.21,0,0,1-.32-.89c0-2,.11-3.88.22-5.66.27-4.56.5-8.5-1.38-13.31-1.55-3.87-4.63-6.09-8.46-6.09a10.79,10.79,0,0,0-8.55,4.36,8.28,8.28,0,0,0-1.1,7.69c1.26,3.57,3.66,5.62,6.59,5.62a6.51,6.51,0,0,0,5.26-2.71,4.25,4.25,0,0,0,.55-4c-.65-1.82-1.67-2.74-3-2.74a5.54,5.54,0,0,0-3.26,1.44,1.68,1.68,0,0,1-1,.49.6.6,0,0,1-.58-.45,1.62,1.62,0,0,1,.63-1.74,6.86,6.86,0,0,1,4.1-1.63,4.67,4.67,0,0,1,3.66,1.86,5.92,5.92,0,0,1,.88,6.59,8.14,8.14,0,0,1-7.11,4.8h-.32a9.32,9.32,0,0,1-7.34-4.71A10.85,10.85,0,0,1,60,114.28a12.76,12.76,0,0,1,11-6.38,9.86,9.86,0,0,1,8.84,5l.66,1.11,0-1.29c0-1.2.1-2.53.17-3.93.39-7.8.92-18.48-3.2-22.82a6.41,6.41,0,0,0-4.83-2,10,10,0,0,0-1.41.11,8.11,8.11,0,0,0-6.9,5.13,7.79,7.79,0,0,0,1.83,8,5.26,5.26,0,0,0,3.83,1.8A5.17,5.17,0,0,0,75,95.21c.37-1.7-.47-3.16-2.3-4A3.24,3.24,0,0,0,71.5,91a2,2,0,0,0-1.73,1.26c-.28.47-.44.76-.82.76a1.39,1.39,0,0,1-.32,0,1,1,0,0,1-.75-1.15c.2-1.24,1.87-2.63,3.8-2.63A5.19,5.19,0,0,1,75.4,91a5.44,5.44,0,0,1,.95,6,6.47,6.47,0,0,1-5.92,4.08,7.83,7.83,0,0,1-3.18-.72,9.54,9.54,0,0,1-1.63-15.92,11.52,11.52,0,0,1,6.93-2.37,8.75,8.75,0,0,1,7.93,4.54l.53,1,.16-1.09c1.36-9.25,6.69-10.25,8.91-10.25a9.88,9.88,0,0,1,8.33,4.91,7.9,7.9,0,0,1-.23,8.23c-1.44,2.42-3.5,3.75-5.81,3.75a6.6,6.6,0,0,1-5.94-3.84,4.53,4.53,0,0,1,1.2-5.16,5.05,5.05,0,0,1,3.5-1.51,2.93,2.93,0,0,1,3,2.2.93.93,0,0,1-.09.89,1.11,1.11,0,0,1-.88.43.92.92,0,0,1-.89-.68,2,2,0,0,0-1.79-1.32c-1.25,0-2.64,1.47-2.64,3.43a4.3,4.3,0,0,0,4.21,3.66c1.19,0,2.92-.5,4.46-2.88a5.93,5.93,0,0,0,.28-6.22,7.91,7.91,0,0,0-6.66-3.83,6.3,6.3,0,0,0-6,4.29c-1.27,3.37-1.31,9.3-1.35,14.54,0,1.94,0,3.77-.11,5.27v.23l.61.16.11-.21a9.88,9.88,0,0,1,9.12-5.86,13.33,13.33,0,0,1,11.17,6.49,10,10,0,0,1-.39,10.43,9.68,9.68,0,0,1-8.2,4.91A6.84,6.84,0,0,1,88.57,114a6.16,6.16,0,0,1,.38-6,6.56,6.56,0,0,1,5.3-2.81,3.78,3.78,0,0,1,3.89,2.8,1.05,1.05,0,0,1-.26.87,1.22,1.22,0,0,1-.91.45.64.64,0,0,1-.68-.63A2.2,2.2,0,0,0,94,107.08,4.28,4.28,0,0,0,90.58,109a4.4,4.4,0,0,0-.13,4.41,4.88,4.88,0,0,0,4.64,3.14,8.45,8.45,0,0,0,6.71-4,8.09,8.09,0,0,0,.46-8,11.58,11.58,0,0,0-9.5-5.93c-3.64,0-9.76,2.5-9.76,19.22l-.57,17.39A.83.83,0,0,1,81.59,136.11Z" transform="translate(-58.84 -76.24)"/></svg>