<svg id="Layer_1" data-name="Layer 1" xmlns="http://www.w3.org/2000/svg" width="50.66" height="51.68" viewBox="0 0 50.66 51.68"><defs><style>.cls-1{fill:#756b62;}</style></defs><path class="cls-1" d="M45.37,77a26.31,26.31,0,0,1-4.22-.35c-9.58-1.57-15.3-7.27-16.1-16.06-.87-9.61,3.35-17.23,11.6-20.9a24,24,0,0,1,9.42-2c3.54,0,9.78.89,11.81,6.88,2.33,6.86-.4,16.67-7.55,19.54a12.46,12.46,0,0,1-4.57.84c-5.28,0-10.94-3.21-11-9.17a9.46,9.46,0,0,1,3-6.4,8.37,8.37,0,0,1,5.65-2.81,4.66,4.66,0,0,1,3.93,2.24.75.75,0,0,1,.12.83,1.32,1.32,0,0,1-1.15.64,1.07,1.07,0,0,1-.91-.5,2.38,2.38,0,0,0-2-1c-2.4,0-5.43,3.19-5.86,4.21a6.72,6.72,0,0,0,1.06,7,9.2,9.2,0,0,0,7,2.89,10.35,10.35,0,0,0,5.1-1.29C54.51,59.34,57,54,56.5,48.83c-.38-4.06-2.53-7.07-5.91-8.27a15.15,15.15,0,0,0-5.05-.82,20.46,20.46,0,0,0-14.19,5.82c-5,5.2-5.35,15-2.6,21,2.83,6.1,10.74,8.27,16.65,8.27.6,0,1.18,0,1.75-.07a24.05,24.05,0,0,0,16.38-8.26,25.14,25.14,0,0,0,5.23-21.83A19,19,0,0,0,57.32,31l-1.94-.81a41.26,41.26,0,0,0-6.86-2.43,11.33,11.33,0,0,0-2.41-.26A22.81,22.81,0,0,0,39,29l-.47.16A34.58,34.58,0,0,0,22.65,40.1a.81.81,0,0,1-.62.34,1.19,1.19,0,0,1-1-.74,1.11,1.11,0,0,1,.17-1.24A34.77,34.77,0,0,1,34,28.56c3.7-1.59,8-3.3,12-3.3a12.65,12.65,0,0,1,2.51.24,43,43,0,0,1,14.29,5.8c3.62,2.48,6.41,6.74,7.84,12A26.51,26.51,0,0,1,66,66.51,25.94,25.94,0,0,1,45.37,77Z" transform="translate(-20.94 -25.26)"/></svg>