<svg id="Graphic_Elements" data-name="Graphic Elements" xmlns="http://www.w3.org/2000/svg" width="195.03" height="423.79" viewBox="0 0 195.03 423.79"><defs><style>.cls-1{fill:#9f968e;}</style></defs><path class="cls-1" d="M321.24,791.37a51.3,51.3,0,0,1-9.85-2.58c-2.44-.84-4.88-1.63-7.26-2.35a31.44,31.44,0,0,1-10.74-5.15l-1.1-.74c-1.85-1.23-3.82-2.55-5.77-4-3.24-2.34-6.34-5-9.34-7.53l-1.48-1.26a65.77,65.77,0,0,1-4.88-4.5c-1-1.09-2-2.24-3-3.35-.54-.63-1.07-1.24-1.61-1.84a92.74,92.74,0,0,0-7.22-7c-1-.91-2.05-1.83-3.05-2.76-1.74-1.62-3.46-3.25-5.19-4.88s-3.29-3.13-5-4.67l-.19-.18c-1.08-1-2.44-2.26-2.76-3.79a9.66,9.66,0,0,1,.71-4.76c.3-.92.67-1.83,1-2.71.24-.61.46-1.16.66-1.72.54-1.46,1-3,1.44-4.43l.48-1.6c1.27-4.07,2.58-8.29,5.13-11.7a17.19,17.19,0,0,1,9.23-6.51,11.31,11.31,0,0,1,4.1-.18,11.87,11.87,0,0,1,1.42.28l.32.08v-.32a25.69,25.69,0,0,1,1.75-7.86,57.8,57.8,0,0,1,4.6-9.48,25.43,25.43,0,0,1,5.59-6.71,24.88,24.88,0,0,1,8.54-4.24,78.18,78.18,0,0,1,10.77-2.32L303,670l.06-.12c.5-1,1-1.89,1.51-2.83.36-.65.67-1.23,1-1.82l.34-.63a24,24,0,0,1,2.65-4.28c2.14-2.55,5.66-3.22,8.24-3.34a13.44,13.44,0,0,1,2.43.13,30.45,30.45,0,0,1,5.44,1.43c.93.3,1.88.61,2.83.88a87.86,87.86,0,0,1,11.91,4l.08,0,.09,0c2.58-.56,4.84-1.1,6.89-1.65l1.11-.3a93.38,93.38,0,0,1,9.92-2.29,21.59,21.59,0,0,1,5.15-.35c.27,0,.53,0,.78.08a19.88,19.88,0,0,1,4.14,1.08,58.09,58.09,0,0,1,10.18,4.65c6,3.57,11.14,8.27,16.7,13.59l2.87,2.72.18.17a137,137,0,0,1,12.67,13,18.49,18.49,0,0,1,3.94,8.32,39,39,0,0,1,.12,10.93c-.27,2.63-.64,5.29-1,7.86-.15,1.16-.31,2.31-.46,3.46-.4,3-.85,6.07-1.28,9l-.67,4.67c-.52,3.55-1.05,7.23-1.35,10.86l-.17,2.07c-.28,3.29-.57,6.68-.61,10a11.26,11.26,0,0,1-1.34,5.48,9.15,9.15,0,0,1-2.84,2.41l-.12.08a43.75,43.75,0,0,1-7.17,3.63,118.48,118.48,0,0,1-20.6,5.81c-5.43,1.14-11.46,2.13-18.42,3h-.05l0,0c-1,.58-2.05,1.19-3.06,1.8-1.72,1-3.5,2.09-5.31,3a46.94,46.94,0,0,1-11.81,3.54,60.9,60.9,0,0,1-13.3,1.44A29.66,29.66,0,0,1,321.24,791.37Zm-56.43-89.74-.72-.06a9.31,9.31,0,0,0-5.57,1.91,20.35,20.35,0,0,0-7.31,8.76,71.91,71.91,0,0,0-3,8.59c-.32,1-.62,2-.93,3s-.76,2.11-1.16,3.13a29.22,29.22,0,0,0-1.78,5.53,4.68,4.68,0,0,0,.78,3.94,19,19,0,0,0,2.56,2.67l.92.85c3.29,3.14,6.52,6.22,9.86,9.26l2,1.8a93.34,93.34,0,0,1,7.3,7.06l.24.27a88.32,88.32,0,0,0,8.36,8.6l.4.34c3,2.6,6.14,5.29,9.36,7.74s6.44,4.56,9.66,6.68l1,.64c3,2,6.29,3,9.75,4.09l1.81.57c1.2.39,2.4.81,3.61,1.24a53,53,0,0,0,9.13,2.62l.66.1a41,41,0,0,0,12.92-.56l.65-.11a51.68,51.68,0,0,0,11.17-2.82,59.94,59.94,0,0,0,7.34-3.93l1.32-.78-.17-.49-1.75.21c-7.87.93-16.22,1.75-24.23.65-7.49-1-13.47-3.6-18.28-7.85a58.68,58.68,0,0,1-5.65-6.06l-.06-.08c-.56-.66-1.12-1.31-1.69-2s-1.25-1.38-1.89-2-1.37-1.45-2-2.2a39.27,39.27,0,0,1-3.13-4.25c-.6-.92-1.18-1.84-1.77-2.76l-.09-.13c-1.37-2.16-2.79-4.4-4.32-6.53-1.06-1.49-2.21-2.94-3.32-4.33s-2.34-2.93-3.43-4.47a48.68,48.68,0,0,1-3.4-5.86c-.52-1-1-2-1.54-2.88l-.81-1.43c-.6-1-1.22-2.13-1.79-3.23a51.82,51.82,0,0,1-2.27-5.28l-.46-1.22c-.52-1.38-1.05-2.81-1.65-4.19-.1-.24-.21-.48-.32-.71l-.08-.17-.18,0a3.19,3.19,0,0,1-.62,0c-.15,0-.22-.07-.22-.15a6.31,6.31,0,0,0-.36-1.69c-.08-.26-.16-.51-.22-.77-.15-.59-.29-1.19-.44-1.79a33.25,33.25,0,0,0-1.69-3.76A8.71,8.71,0,0,1,266,703v0l.08-.08a1.83,1.83,0,0,1,.9-.15l.11-.5A10,10,0,0,0,264.81,701.63Zm4.7,2.2c0,.14,0,.28,0,.41a2.39,2.39,0,0,1-.27,1.34l-.06.09,0,.1c.21,1.06.47,2.13.72,3.16l.27,1.14.16.66a22.59,22.59,0,0,0,1.35,3c.26.51.52,1,.76,1.55.72,1.57,1.33,3.22,1.93,4.81l.27.73c.6,1.6,1.22,3.24,1.95,4.78s1.56,3,2.38,4.44l.15.25c.65,1.14,1.26,2.32,1.86,3.47.9,1.75,1.83,3.54,2.89,5.19a62.24,62.24,0,0,0,3.86,5.15c.85,1.06,1.68,2.08,2.45,3.12,1.95,2.63,3.91,5.53,6.16,9.14,1,1.54,1.84,2.92,2.82,4.26a39.24,39.24,0,0,0,3.34,3.87l.38.41c1.18,1.26,2.31,2.58,3.41,3.87,1.28,1.5,2.58,3,3.94,4.43a30.33,30.33,0,0,0,8.32,6.11,34.91,34.91,0,0,0,11.05,3.29,62.56,62.56,0,0,0,10.86.43,163.54,163.54,0,0,0,16.72-1.56h0l0,0a39.24,39.24,0,0,1,7.86-3.28c2.32-.67,3.44-1.83,3.51-3.63a12,12,0,0,0-.56-3.46,15.4,15.4,0,0,1-.55-2.75c0-.52,0-1.06,0-1.59.05-1.42.1-2.76-.78-3.82a6,6,0,0,0-4-1.8c-.42-.06-.84-.13-1.25-.21l-.14,0a13.2,13.2,0,0,1-2.52-.09l-.68-.11h-.09a12.56,12.56,0,0,0-1.55.38,40.41,40.41,0,0,0-5.52,2l-.56.26.51.25.53.22a6.22,6.22,0,0,0,1.56.52c.1,0,.15.05.16.12s-.09.15-.36.23a2.54,2.54,0,0,1-.89,0,6.09,6.09,0,0,1-1.56-.52,9.15,9.15,0,0,0-1.16-.44h-.13a5.27,5.27,0,0,1-2,.14,2,2,0,0,1-.34-.06,2.9,2.9,0,0,1-1.14-.54l-.05,0h-.06c-1.85-.28-3.55-.61-5.22-1A47.67,47.67,0,0,1,329,758.1c-2.87-1.54-5.82-3.05-8.67-4.51-4.45-2.29-9-4.65-13.47-7.15-4.15-2.33-7.71-4.54-10.87-6.73s-5.69-4.06-7.67-6.76a19.12,19.12,0,0,1-2.45-4.89c-.69-1.91-1.44-4-2.24-5.94a40.4,40.4,0,0,0-2.63-5.66c-.56-.94-1.2-1.86-1.81-2.74-.46-.66-.92-1.31-1.35-2l-.22-.34a25.82,25.82,0,0,0-3.23-4.35,20.69,20.69,0,0,0-4.53-3.41l-.34-.19Zm93.15-44.44a17.86,17.86,0,0,0-5.59.3c-2.87.5-5.73,1.28-8.5,2l-2.56.69c-1.6.42-3.26.82-5.06,1.23l-.74.17.69.32c1.91.9,3.8,1.9,5.62,2.86,1.56.83,3.11,1.65,4.67,2.41,1.94.94,3.95,1.81,5.9,2.64s4.05,1.74,6,2.71c1.31.65,2.6,1.36,3.85,2l1.47.82,1.15.61a34.65,34.65,0,0,1,4,2.35c3,2.15,5,5.22,7.14,8.72a44.6,44.6,0,0,1,4.85,10.25,51.12,51.12,0,0,1,1.91,11.59,110.68,110.68,0,0,1,.17,13,76.93,76.93,0,0,1-4,21.64c-2.48,7-5.8,11.29-10.17,12.94a27.05,27.05,0,0,1-5.37,1.28l-1.63.29-1.46.26,0,.51.15,0a4.84,4.84,0,0,1,3.48,2.59,6.77,6.77,0,0,1,.29,2.69v.36a14.47,14.47,0,0,0,.29,3.39c.09.41.2.83.31,1.25.45,1.69,1,3.59-.08,5.17-.85,1.27-2.42,1.71-3.81,2.09l-.47.13a28,28,0,0,0-4.57,1.8l.15.49,3.24-.48a197,197,0,0,0,21.89-4.41c5.88-1.57,12-3.51,17.33-7l.09-.06a7.58,7.58,0,0,0,2.73-2.51,11.69,11.69,0,0,0,1.16-5.54,38.94,38.94,0,0,1,.22-4.32c0-.56.09-1.07.12-1.57q.23-3,.46-5.91c.43-5.22,1.23-10.5,2-15.6.41-2.71.83-5.44,1.19-8.13.14-1.07.29-2.15.43-3.22.36-2.6.72-5.23,1-7.83a43.55,43.55,0,0,0,.15-10.8,18.18,18.18,0,0,0-3.19-8.09,65,65,0,0,0-7.24-8.06l-.23-.23c-1.91-1.9-3.95-3.84-5.74-5.55l-2.27-2.16c-2.43-2.33-4.95-4.74-7.53-7a73.6,73.6,0,0,0-8.24-6.35,56.54,56.54,0,0,0-9.4-4.79,32.49,32.49,0,0,0-5.41-1.87ZM342.48,752a6.11,6.11,0,0,1-.47.53,5.43,5.43,0,0,1-4.46,1.23l-.83-.09,1.34,1.18c1.62,1.45,3.34,3,5.27,4.82l.5.48c.69.64,1.38,1.28,2.05,2l.15.14a7,7,0,0,0,.69.65l.06.05h.07l1.15.14c.39,0,.79.08,1.18.14h.07l.06,0c.38-.15.75-.32,1.13-.5s.8-.38,1.19-.53c1-.38,1.92-.71,2.82-1,.6-.2,1.19-.39,1.79-.55l.76-.2-.74-.3c-.43-.17-.86-.37-1.29-.56a12.48,12.48,0,0,0-3.46-1.19,4.93,4.93,0,0,0-.54,0,9.79,9.79,0,0,0-1.63.08,8.73,8.73,0,0,1-2,0A3.71,3.71,0,0,1,346,758c-1.32-.7-1.83-2.24-2.28-3.6-.12-.38-.23-.69-.34-1s-.32-.86-.48-1.35l-.16-.47Zm-55.85-53.49a71,71,0,0,0-7.9-.59l-1.66,0c-1,0-2-.06-3-.07a3.05,3.05,0,0,0-2.51,1.15,11.5,11.5,0,0,0-1.6,3.26l-.13.35.21.1a23.91,23.91,0,0,1,2.08,1.18,18.7,18.7,0,0,1,4.58,3.91,35.64,35.64,0,0,1,2.42,3.49c.38.59.75,1.17,1.14,1.75l.43.61a35.86,35.86,0,0,1,2.88,4.74c1,2.18,1.9,4.49,2.67,6.53.21.56.4,1.12.6,1.69a28.69,28.69,0,0,0,1.87,4.52,17.6,17.6,0,0,0,3.43,4.26,68.08,68.08,0,0,0,10.53,7.51c6.11,3.76,12.59,7.09,18.87,10.31l.28.15,5,2.6,1.79.95c1.43.77,2.92,1.57,4.44,2.25a45.71,45.71,0,0,0,6.53,2.34c1.36.37,2.81.71,4.3,1l.87.17-.63-.62-1.47-1.39-.12-.11c-3.2-3-5.87-5.42-8.4-7.61l0,0h-.05a18.69,18.69,0,0,1-1.95-.86,4.7,4.7,0,0,1-2.49-2.37,2.07,2.07,0,0,1-.08-.42v-.12l-.09-.07c-4.64-3.69-9.56-7.18-14.31-10.56l-.33-.23-3.54-2.53-3.23-2.33c-2.36-1.72-4.73-3.45-7.13-5.06-.9-.61-1.82-1.18-2.74-1.76-1.46-.91-2.9-1.81-4.25-2.81a15,15,0,0,1-5.21-5.89c-1.36-3.09-.79-6.46-.24-9.72l0-.27a73.25,73.25,0,0,1,2-8.41l.08-.28-.29-.05-1.68-.3C287.91,698.72,287.27,698.62,286.63,698.53ZM352.43,758c.23,0,.47.08.7.13a15.12,15.12,0,0,1,3,1.11,19.1,19.1,0,0,0,2.45.95l.05,0h0a8,8,0,0,1,1.09,0,9.72,9.72,0,0,1,1.06.1c.39.05.79.12,1.19.19a29.38,29.38,0,0,0,3.26-.47l1.54-.28.33-.05a22.34,22.34,0,0,0,5.9-1.5,12.81,12.81,0,0,0,3.8-2.8,24.58,24.58,0,0,0,4.91-8.37,74.32,74.32,0,0,0,4.43-23.29,114.27,114.27,0,0,0-.34-14.33,43.46,43.46,0,0,0-2.59-12.06,52.14,52.14,0,0,0-6-10.93,23.58,23.58,0,0,0-4.42-5,27,27,0,0,0-4.52-2.79l-.85-.45-1.87-1c-1.31-.73-2.67-1.49-4.07-2.16s-2.78-1.26-4.14-1.83c-.83-.35-1.64-.68-2.44-1-3.23-1.43-6.4-3.07-9.47-4.66-1-.55-2.11-1.09-3.17-1.63s-2.3-1.14-3.43-1.65l-.08,0-.08,0c-4.66,1-9.39,1.83-14,2.65l-1.27.22c-6.65,1.18-13.34,2.27-19.08,3.2l-.13,0-.06.12c-1.42,2.76-2.65,5.23-3.74,7.56a154.68,154.68,0,0,0-8.36,20.73l-.08.28.29.05a41.82,41.82,0,0,1,5,1.25c4.09,1.34,7.86,3.73,11.51,6a31.12,31.12,0,0,0,5.53,3,11.62,11.62,0,0,0,2.57.69,8.72,8.72,0,0,0,.88.08,7.48,7.48,0,0,0,2.65-.46l.33-.11-.2-.29q-1.89-2.7-3.81-5.37c-.39-.55-.79-1.08-1.2-1.62l-.06-.09c-.86-1.14-1.74-2.3-2.48-3.5a4.19,4.19,0,0,1-.4-4.19,11.29,11.29,0,0,1,2.68-3.49,32.07,32.07,0,0,1,7.64-5c6-3,13-4.9,22.08-6a37.77,37.77,0,0,1,9.73-.26l.63.09a14.65,14.65,0,0,1,9,5.32c4.84,6,5.84,14.18,6.17,19.82a9.54,9.54,0,0,1-.79,5.09,11.45,11.45,0,0,1-3.28,3.65c-.93.75-1.86,1.48-2.8,2.22l-.23.17c-2.19,1.73-4.46,3.5-6.62,5.34-4.26,3.62-7.93,7-11.22,10.22l-.06.07v.1l-.6,6.31c-.12,1.21-.2,2.42-.28,3.63-.1,1.5-.21,3.05-.38,4.57a19.7,19.7,0,0,1-.6,3.37l0,.08.67,2.19c.31,1,.7,2,1.08,3l.21.54a3.85,3.85,0,0,0,1.61,2.35,3,3,0,0,0,1.07.35,7.13,7.13,0,0,0,1.66,0l.66-.06A9.06,9.06,0,0,1,352.43,758Zm-14.2-18.62c-1.31,1.53-2.56,3-4,4.85-.3.36-.63.72-1,1.08a10.33,10.33,0,0,0-2.05,2.82,2.38,2.38,0,0,0-.18.72V749l.11.08c1.49,1.19,2.87,2.32,4.22,3.46l0,0,.37.13a11.94,11.94,0,0,0,2.35.68,3.79,3.79,0,0,0,.74,0,3.34,3.34,0,0,0,2.25-1.42,7.17,7.17,0,0,0,1.09-2.14l0-.08-.13-.42q-.35-1.19-.72-2.34l-.06-.18c-.63-1.94-1.28-3.92-2-5.84-.2-.51-.4-1-.61-1.53l-.16-.4Zm-46.4-39.68c-.49,1.69-.92,3.38-1.27,5a64.33,64.33,0,0,0-1.15,7.18,11.68,11.68,0,0,0,.39,4.93c.78,2.38,2.51,4.49,5.44,6.65,1.34,1,2.78,1.89,4.16,2.75,1.19.74,2.37,1.48,3.49,2.27,2.73,1.91,5.48,3.9,8.14,5.82l5,3.57c4.5,3.23,9.13,6.54,13.55,10l.24.19.15-.27a9.44,9.44,0,0,1,1.39-1.84l.2-.23c.9-1,1.78-2.09,2.62-3.12l1.4-1.68c.78-.94,1.58-1.87,2.39-2.78l.11-.13-.07-.15A125.73,125.73,0,0,0,327.92,720c-2.32-3.55-4.51-6.81-6.71-10l-.11-.16-.18.06c-.3.09-.6.16-.9.23a12.34,12.34,0,0,1-4.07.13,13.43,13.43,0,0,1-3-.79,34.57,34.57,0,0,1-5.88-3.23l-1.4-.89a58.94,58.94,0,0,0-7.84-4.17,30.81,30.81,0,0,0-5.7-1.7l-.24,0Zm51.62,34c-1.33,1.38-2.62,2.77-3.82,4.12l-.11.13.26.6c.87,2.08,1.71,4.35,2.63,7.14l.52-.06c.11-1.19.19-2.41.27-3.59s.16-2.43.28-3.64c.15-1.5.29-3,.42-4.49l.07-.74Zm2.36-33.27a26.7,26.7,0,0,0-9.89,2,50.69,50.69,0,0,0-8.86,4.39l-.57.36a33.7,33.7,0,0,1-3.85,2.17l-.29.13.18.26c4.53,6.48,8.12,12,11.29,17.28a98.55,98.55,0,0,1,5.07,9.55l.17.36.27-.29c1.52-1.67,3.1-3.33,4.71-4.92l.06-.07v-.09q.28-3.32.56-6.61l.38-4.56c.25-3,.5-5.94.73-8.91.09-1.1.15-2.19.21-3.29s.12-2.19.2-3.29c0-.27.05-.54.08-.82a6.23,6.23,0,0,0-.23-3.47l-.07-.15Zm1.22-.44a.52.52,0,0,1,.24.08c.48.35.55,1.3.55,2.18a16,16,0,0,1-.12,1.71c0,.34-.07.68-.09,1,0,.57-.07,1.15-.09,1.72s-.06,1.18-.09,1.73c-.4,6.19-.91,12.65-1.67,20.94l-.06.7.5-.49c3.06-2.92,6.27-5.81,9.55-8.59,1.82-1.54,3.69-3.08,5.57-4.57.58-.46,1.18-.9,1.77-1.35.92-.69,2-1.47,2.9-2.29A8.48,8.48,0,0,0,369,707.9,17.86,17.86,0,0,0,369,703l-.06-.6a40.16,40.16,0,0,0-2.6-11.43c-1.22-3-3.46-7-7.25-9.22a14.13,14.13,0,0,0-5.28-1.75,29.2,29.2,0,0,0-6.92,0c-10.32,1.08-18.57,3.48-25.2,7.32-2.67,1.55-5.62,3.51-7.25,6.27a4.11,4.11,0,0,0-.19,4.4,35.41,35.41,0,0,0,2.66,3.83c.45.59.88,1.15,1.28,1.71q1.84,2.57,3.67,5.16l.13.18.2-.1c1-.52,2-1.15,3-1.75.69-.44,1.33-.84,2-1.21a54,54,0,0,1,5.42-2.74,34.21,34.21,0,0,1,12.26-3.1c.51,0,1,0,1.55,0h.16A2.67,2.67,0,0,1,347,699.94Zm-44.82-29.41-3,.49c-6.42,1-13.68,2.18-18.83,6.54a26.1,26.1,0,0,0-5.49,6.8,57.92,57.92,0,0,0-4.49,9.45,26.16,26.16,0,0,0-1.51,6.4l.5.14.11-.22a4.26,4.26,0,0,1,2.54-2.41,11.68,11.68,0,0,1,3.91-.29l.9,0,1.18,0c1.78,0,3.57.08,5.32.18,1.22.08,2.47.2,3.83.39,1,.14,2,.3,3.14.51l.44.08.07-.23a131.79,131.79,0,0,1,6-15.44c2-4.44,3.87-8.37,5.71-12l.24-.46Zm16.17-13a10.38,10.38,0,0,0-2.48-.06,9.4,9.4,0,0,0-5.26,2.13,15.91,15.91,0,0,0-3.24,4.73l-.4.76q-1.12,2.1-2.22,4.21l-.24.46.52-.08,5.58-.91c6.57-1.08,15.23-2.54,24-4.3l2.59-.52.83-.17-.78-.33a65.18,65.18,0,0,0-8.5-3c-2.08-.57-4.3-1.19-6.49-1.94A22.11,22.11,0,0,0,318.38,657.5Z" transform="translate(-242.72 -656.96)"/><path class="cls-1" d="M303,1080.75a1,1,0,0,1-.71-.92,43.2,43.2,0,0,0,.14-7.47c-.08-1.34-.2-2.68-.31-4a71.8,71.8,0,0,1-.35-10.08c.11-1.9.3-3.84.47-5.71.3-3.15.61-6.35.61-9.52a109.27,109.27,0,0,1,.79-14.24,152.61,152.61,0,0,0,1-15.33,276.61,276.61,0,0,1,3-30.49l.83-6c.44-3.12.86-6.19,1.28-9.26.17-1.2.32-2.41.48-3.62.47-3.64.95-7.41,1.7-11.07.32-1.58.65-3.15,1-4.72l0-.14c.69-3.3,1.4-6.69,2-10a62,62,0,0,1,3.93-13.85c2.58-6,5.44-12,8.2-17.82,1.5-3.15,3-6.27,4.44-9.41,3.76-8.11,7.26-16.82,11.38-28.26.35-1,.7-1.91,1.06-2.87a78.73,78.73,0,0,0,3.71-11.95c.25-1.27.46-2.57.67-3.82s.4-2.42.63-3.61c.3-1.59.72-3.16,1.13-4.69l0-.08c.17-.67.35-1.34.52-2a133.49,133.49,0,0,0,2.65-15.25c.41-3.06,1.13-6.08,1.82-9,.4-1.66.81-3.38,1.15-5.09a29.37,29.37,0,0,0-.18-14.25,13.8,13.8,0,0,0-3-5.37,5,5,0,0,1-1.5-3.73.44.44,0,0,1,.15-.34.29.29,0,0,1,.24-.06,1,1,0,0,1,.73.91c-.11,1.23.83,2.32,1.73,3.38a10.65,10.65,0,0,1,1.16,1.5c2.28,3.83,2.62,8.67,2.62,11.22a51.75,51.75,0,0,1-2,12.06l-.42,1.72c-.83,3.46-1.34,7-1.84,10.46-.21,1.48-.43,3-.67,4.45-.45,2.79-1.13,5.56-1.8,8.24-.51,2.06-1,4.16-1.44,6.26-.25,1.24-.47,2.48-.69,3.71a66.16,66.16,0,0,1-2.54,10.79c-1.38,3.91-3.21,9.06-5.13,14.29-3.18,8.66-7.06,17.8-11.86,27.93l-1.78,3.72c-1.51,3.18-3.07,6.46-4.58,9.73-.29.64-.6,1.29-.9,1.93a85.22,85.22,0,0,0-4.86,12,94.72,94.72,0,0,0-2.05,9.56c-.3,1.64-.6,3.33-.94,5l-.75,3.52c-.81,3.73-1.65,7.6-2.15,11.48-.72,5.54-1.5,11.15-2.26,16.59-.65,4.67-1.3,9.32-1.92,14s-1.26,9.87-1.64,15.35c-.18,2.76-.26,5.56-.34,8.28-.06,2.25-.12,4.56-.25,6.86-.13,2.46-.42,5-.7,7.35s-.59,5-.72,7.52c-.11,2-.14,4.05-.18,6-.06,2.93-.11,5.94-.39,8.91a88.36,88.36,0,0,0-.5,15c.05.7.11,1.4.17,2.09.11,1.4.24,3,.33,4.49v.16l.15.06a1,1,0,0,1,.59.89l-.88,6.36C303.33,1080.76,303.06,1080.76,303,1080.75Z" transform="translate(-242.72 -656.96)"/><path class="cls-1" d="M309.5,959.25a.47.47,0,0,1-.16,0,3.1,3.1,0,0,1-1.44-1.71,18.19,18.19,0,0,1-1.11-4.07c-.11-.57-.22-1.13-.35-1.68s-.2-.87-.31-1.31c-.19-.77-.41-1.64-.57-2.5-.28-1.48-.5-3-.71-4.46l-.07-.53c-.36-2.46-.72-5.1-.95-7.74v-.1a48.94,48.94,0,0,0-1-7.29,14.16,14.16,0,0,0-3.23-6.5,25.12,25.12,0,0,0-3.08-2.66l-.43-.33c-.79-.61-1.63-1.24-2.61-2l-.39-.29,0,.49a.37.37,0,0,1-.1.28.21.21,0,0,1-.18,0,1.49,1.49,0,0,1-.78-.72l-.31-1.1-1.09-.78a101.88,101.88,0,0,1-13.59-11c-9.34-9.51-15.37-20.57-17.41-32a64.58,64.58,0,0,1-.94-9c-.08-2.15,0-4.33,0-6.43,0-1,.06-1.92.07-2.87a18.87,18.87,0,0,0-4-14c-.66-1-1.35-2-1.93-3-2.68-4.8-1.05-10.23.39-15l.26-.88a51.56,51.56,0,0,0,1.6-7.35l0-.15-.12-.09c-.22-.19-.45-.37-.69-.55a22.46,22.46,0,0,0-10-3.77l-.4,0a1.08,1.08,0,0,1-.68-1,.3.3,0,0,1,.38-.26l.4,0a23,23,0,0,1,10.88,4.29l.37.28.05-.46a23.44,23.44,0,0,0-.69-9.77.46.46,0,0,1,0-.44.34.34,0,0,1,.32-.1.7.7,0,0,1,.4.22l.88.9,1.91,2a79.9,79.9,0,0,0,6,5.66c1.51,1.24,3.12,2.36,4.69,3.44l.13.1c.58.4,1.15.79,1.72,1.2,2,1.41,3.85,3,5.66,4.56a68.33,68.33,0,0,0,6.91,5.4,17.13,17.13,0,0,0,3.77,2,15.74,15.74,0,0,0,3,.67l1.18.15,1.55.19a21.85,21.85,0,0,1,5.06,1.21,17.92,17.92,0,0,1,6,3.85A9.28,9.28,0,0,1,306.5,838c.3,2.21.41,4.47.52,6.65a58.72,58.72,0,0,0,1,9.22c.29,1.35.68,2.7,1.06,4,.32,1.11.65,2.26.92,3.41a53.33,53.33,0,0,1,1.2,7.19,43.93,43.93,0,0,1-1.37,14.69,26.49,26.49,0,0,1-2.34,6.69,12,12,0,0,1-3.93,3.81l-.73.52a6.31,6.31,0,0,0-2.26,2.6,9.08,9.08,0,0,0-.63,3.05c0,.44-.05.88-.07,1.33a12.4,12.4,0,0,1-.93,5.1,6,6,0,0,1-2.38,2.26,9.59,9.59,0,0,0-1.62,1.23c-1.32,1.33-1.62,3.21-1.74,5v.14l.12.09c1.23.89,2.24,1.65,3.17,2.38a17,17,0,0,1,7.79,12.37c.36,2,.54,4.06.71,6.05l.12,1.34c.21,2.24.54,4.5.87,6.68l.21,1.37c.21,1.46.47,3.15.86,4.81l.27,1.07c.16.64.32,1.27.44,1.91l0,.16c.19,1,.38,1.93.64,2.87l.07.28c.19.76.42,1.52.87,1.71a1.06,1.06,0,0,1,.51,1A.27.27,0,0,1,309.5,959.25ZM256.06,814.19c-.06.42-.13.84-.2,1.25a65,65,0,0,1-1.79,7.09l-.35,1.19a22.33,22.33,0,0,0-1.22,8.19c.25,2.64,1.64,4.67,3.1,6.81l.58.85a19.83,19.83,0,0,1,3.32,8,45.43,45.43,0,0,1,.27,8.56l0,.52a68.26,68.26,0,0,0,1.51,17.94C264,886,270.94,897,280.92,905.77a115.48,115.48,0,0,0,9.28,7.08l1.06.75-.19-.71c-2.13-7.78-3.81-15.75-5.3-23.21-.35-1.78-.71-3.57-1.06-5.36-2.74-13.85-5.57-28.17-10.55-41.64a117.2,117.2,0,0,0-4.78-11.17l-.78-1.58c-.57-1.18-1.23-2.53-1.9-3.8a22.83,22.83,0,0,0-3.62-5c-.59-.62-1.18-1.24-1.78-1.85-.92-1-1.88-1.94-2.79-3l-.83-.94c-.41-.47-.78-.89-1.16-1.3l-.37-.4Zm.19-10.3c.13.72.23,1.46.29,2.18a30.72,30.72,0,0,1-.22,6.31l0,.13.1.09c.7.7,1.36,1.46,2,2.19.46.53.9,1.05,1.37,1.54.62.67,1.26,1.32,1.9,2,1.15,1.17,2.32,2.36,3.35,3.62a26.3,26.3,0,0,1,3.05,4.91c.94,1.87,1.87,3.75,2.77,5.63a121.64,121.64,0,0,1,4.7,11.29,195.42,195.42,0,0,1,6.75,24c1.26,5.61,2.39,11.32,3.48,16.85,1.79,9,3.64,18.38,6.07,27.45l.51,0a6.86,6.86,0,0,1,1.18-2.83,7.7,7.7,0,0,1,2-1.76l.21-.13a6.35,6.35,0,0,0,1.84-1.54,6.63,6.63,0,0,0,.95-3c.1-.76.14-1.55.17-2.31a15.3,15.3,0,0,1,.53-4c.66-2.07,2.24-3.18,3.92-4.35l.25-.17a10.39,10.39,0,0,0,2.44-2.22,12.38,12.38,0,0,0,1.56-3,50.29,50.29,0,0,0,1.92-7.05,39.65,39.65,0,0,0,.32-14.72,66.07,66.07,0,0,0-1.57-6.81,56.65,56.65,0,0,1-1.74-7.94c-.27-2.2-.39-4.44-.5-6.61l-.07-1.27c0-.41,0-.84-.06-1.27a16.76,16.76,0,0,0-.89-5.83c-.72-1.75-2.49-3.36-5.26-4.8a19,19,0,0,0-6.31-1.87l-.77-.1-1.81-.22a15.2,15.2,0,0,1-5.2-1.5,42.83,42.83,0,0,1-6.45-4.39c-1.12-.89-2.22-1.85-3.27-2.77s-1.85-1.61-2.79-2.38c-1.39-1.14-2.9-2.18-4.36-3.19-.7-.48-1.39-1-2.06-1.44a71.46,71.46,0,0,1-9.87-8.9l-.6-.62Z" transform="translate(-242.72 -656.96)"/><path class="cls-1" d="M302.91,1032.13a1.16,1.16,0,0,1-.73-.48.54.54,0,0,1-.11-.42l.09-.4c.34-1.5.69-3,1.1-4.53a26.35,26.35,0,0,1,4.1-9,47.62,47.62,0,0,1,7-7.32,56.48,56.48,0,0,1,7.45-5.7c1.76-1.09,3.63-2.08,5.43-3l.09,0,2.2-1.18a39.42,39.42,0,0,0,7.36-4.87c.44-.38.82-.74,1.15-1.08l.18-.18-.17-.18c-.53-.58-1-1.12-1.4-1.66-1-1.23-2.21-3.1-2.08-5.18.15-2.35,2.14-4,3.62-5l.31-.21-.05-.18c-.17-.59-.32-1.19-.47-1.78l-.08-.29a70.72,70.72,0,0,1-2-9.7c-.46-4.08-.63-11.82,3.42-17.84,2.84-4.23,7.46-6.6,12-8.53a71.35,71.35,0,0,1,19.05-5.17,143,143,0,0,1,20.32-.79l3.73.08c2.18,0,4.61.1,6.94.1H405c2.61,0,5.29,0,7.92,0,2.08.06,3.92.17,5.62.33l1,.11a10.76,10.76,0,0,0,3.62.05,9.42,9.42,0,0,0,3.8-2l.13-.1a7.14,7.14,0,0,1,3.27-1.67h.16a.94.94,0,0,1,.78.88,9.07,9.07,0,0,1-1.05,3.16c-.06.13-.12.25-.17.37l.41.3a26.09,26.09,0,0,0,2.47-2.38,15.24,15.24,0,0,0,2-2.83l.05-.09a11.27,11.27,0,0,0,1.49-3.61,4.69,4.69,0,0,0-.36-2.58c-.21-.48-.34-.65-.51-.7h0c-.27,0-.53.11-.93.5a.45.45,0,0,1-.38.1,1.08,1.08,0,0,1-.81-.65.32.32,0,0,1,.08-.37,2.07,2.07,0,0,1,1.7-.71,2,2,0,0,1,.4.11,3.06,3.06,0,0,1,1.51,1.54A6.21,6.21,0,0,1,437,933a19.47,19.47,0,0,1-4.19,5.84c-.85.8-1.76,1.56-2.62,2.27l-1,.82v.11c-.06.5-.1,1-.15,1.49-.06.7-.12,1.39-.21,2.08l-.51,3.65-.08.53c-.41,2.93-.78,5.58-1.1,8.25a41.46,41.46,0,0,1-3.24,12.72,27.11,27.11,0,0,1-7.87,9.9c-3.45,2.71-7.44,3.95-11.92,5.18l-.12,0c-4,1.09-8.09,2.22-11.69,4.32a20.09,20.09,0,0,0-4.61,3.71,38.16,38.16,0,0,0-2.56,3.17c-.52.69-1,1.35-1.55,2a32.06,32.06,0,0,1-9.32,8c-1.4.78-2.79,1.58-4.19,2.38l-1.51.87a21.54,21.54,0,0,1-6.06,2.57,8.94,8.94,0,0,1-5.85-.72,17.45,17.45,0,0,1-4.9-3.87c-.87-.94-1.7-1.93-2.5-2.88-.59-.7-1.17-1.4-1.78-2.08-1.71-1.93-3.53-3.77-5.55-5.8l-1.06-1-1.42-1.42-.19-.19-.19.19a28.08,28.08,0,0,1-4.3,3.38c-2.1,1.39-4.37,2.59-6.55,3.75l-1.16.61a53.76,53.76,0,0,0-7.26,4.48,69,69,0,0,0-7.74,6.76,27.25,27.25,0,0,0-5.89,8.14,50.12,50.12,0,0,0-2.71,9.16l-.1.45A.33.33,0,0,1,302.91,1032.13ZM427.29,943.4a19.46,19.46,0,0,1-5.7,2.44,34.55,34.55,0,0,1-6.47,1.06c-2.68.21-5.34.51-7.89.89l-3.1.47-.27,0c-1.5.23-3,.47-4.46.67s-2.82.34-4.2.47c-1.21.12-2.39.23-3.55.38-7.64,1-15.27,4.62-24,11.49-3.5,2.75-6.88,5.76-10.14,8.67l-1.24,1.11c-1.86,1.66-3.88,3.43-6,5.14a34.45,34.45,0,0,1-6.07,3.93l-1,.5c-1,.47-2.08,1-3.14,1.64l-.18.11.06.2c.26.83.54,1.61.83,2.35,1,2.52,1.74,5,.37,7.48a11.31,11.31,0,0,1-1.12,1.63l-.14.18.16.17,2.52,2.55c1.09,1.08,2.12,2.12,3.14,3.17,1.5,1.56,3,3.27,4.8,5.39a30.7,30.7,0,0,0,4.53,4.63,8.73,8.73,0,0,0,4.05,1.79,7.67,7.67,0,0,0,1.66,0,16.57,16.57,0,0,0,6.19-2.27c.82-.45,1.61-.92,2.41-1.4,1-.61,2.1-1.24,3.18-1.81a28.48,28.48,0,0,0,5.43-3.61,35.8,35.8,0,0,0,4.2-4.34c.59-.71,1.17-1.47,1.73-2.21.79-1,1.57-2.08,2.43-3a23.74,23.74,0,0,1,9.76-6.32c2.14-.8,4.36-1.42,6.52-2s4.09-1.13,6.1-1.86a22.24,22.24,0,0,0,5.66-2.92,27,27,0,0,0,4.81-4.55,28.79,28.79,0,0,0,5.55-11.35,51.77,51.77,0,0,0,1.14-6.61c.33-2.72.69-5.34,1.1-8.25,0,0,.44-3.12.58-4.18.08-.54.13-1.08.19-1.62l.05-.55Zm-88.7,39.86c-2.44,1.8-3.26,3.72-2.53,5.85a11.6,11.6,0,0,0,2.55,3.86l.21.23L339,993a6.05,6.05,0,0,0,1.53-5.08,17,17,0,0,0-1-3l-.35-.89c-.08-.21-.15-.42-.22-.63l-.12-.34Zm90.49-47c-.37.24-.72.51-1.07.78l-.39.3a9.72,9.72,0,0,1-3.59,1.83,10.61,10.61,0,0,1-3.85,0l-.44-.05a104.69,104.69,0,0,0-11.49-.46h-2c-3,0-6.17,0-9.3-.05h-.34c-3.22-.07-6.55-.15-9.85-.15a107.5,107.5,0,0,0-20.05,1.5,68.11,68.11,0,0,0-17.87,6,24.4,24.4,0,0,0-6.07,4,16.92,16.92,0,0,0-4.14,6.29c-2,5.38-2.21,11.7-.53,19.33.43,1.91.8,3.51,1.24,5.11l.09.33.29-.17c.9-.5,1.82-1,2.72-1.41l.09,0,1.83-.93a37,37,0,0,0,6.23-4.41c2.11-1.75,4.2-3.62,6-5.27,3.44-3.09,7.13-6.35,11-9.32,8.69-6.68,16.4-10.16,24.26-10.95l1.21-.12c2.14-.21,4.36-.43,6.56-.75l3.55-.55c1.48-.23,2.94-.46,4.39-.67s3.14-.36,4.68-.5a44.3,44.3,0,0,0,9.55-1.57,17.19,17.19,0,0,0,5.84-3.08l.25-.2V941a10.89,10.89,0,0,1,.94-3.2l.09-.18c.18-.39.34-.72.48-1.06l.33-.79Z" transform="translate(-242.72 -656.96)"/></svg>