<svg id="svg8" xmlns="http://www.w3.org/2000/svg" width="22.16" height="13.16" viewBox="0 0 22.16 13.16"><defs><style>.cls-1{fill:#9f968e;fill-rule:evenodd;}</style></defs><path id="path4" class="cls-1" d="M104.85,92.18c.15-.51,0-.89-.73-.89h-2.43a1,1,0,0,0-1,.68,20.48,20.48,0,0,1-3,5c-.57.57-.82.74-1.13.74-.16,0-.38-.17-.38-.69v-4.8c0-.62-.18-.89-.69-.89H91.65a.58.58,0,0,0-.62.56c0,.58.88.71,1,2.36v3.57c0,.78-.15.92-.45.92-.83,0-2.82-3-4-6.47-.23-.67-.47-.94-1.08-.94H84c-.69,0-.83.32-.83.68,0,.65.82,3.83,3.83,8,2,2.88,4.82,4.44,7.39,4.44,1.54,0,1.73-.35,1.73-1v-2.17c0-.69.15-.83.63-.83s1,.18,2.42,1.57c1.64,1.64,1.91,2.38,2.84,2.38h2.42c.69,0,1-.35.84-1a10.42,10.42,0,0,0-2-2.84c-.57-.67-1.42-1.39-1.67-1.75s-.26-.67,0-1.08c0,0,3-4.16,3.26-5.57Z" transform="translate(-83.2 -91.29)"/></svg>