<svg id="Layer_1" data-name="Layer 1" xmlns="http://www.w3.org/2000/svg" width="24.44" height="17.12" viewBox="0 0 24.44 17.12"><defs><style>.cls-1{fill:#9f968e;}</style></defs><path class="cls-1" d="M91.46,49.12A3.06,3.06,0,0,0,89.3,47c-1.9-.52-9.53-.52-9.53-.52s-7.64,0-9.53.53a3.09,3.09,0,0,0-2.17,2.17c-.57,3.37-.79,8.5,0,11.74A3.06,3.06,0,0,0,70.25,63c1.9.52,9.53.52,9.53.52s7.64,0,9.53-.52a3.07,3.07,0,0,0,2.17-2.16A33,33,0,0,0,91.46,49.12ZM77.34,58.67V51.33L83.67,55Z" transform="translate(-67.56 -46.44)"/></svg>